<?xml version="1.0" encoding="iso-8859-1"?>
<!-- Uploaded to: SVG Repo, www.svgrepo.com, Generator: SVG Repo Mixer Tools -->
<svg version="1.1" id="Layer_1" xmlns="http://www.w3.org/2000/svg" xmlns:xlink="http://www.w3.org/1999/xlink" 
	 viewBox="0 0 512 512" xml:space="preserve">
<path style="fill:#616267;" d="M495.304,456.348c-9.217,0-16.696-7.473-16.696-16.696v-33.391c0-9.206-7.49-16.696-16.696-16.696
	h-44.522c-9.217,0-16.696-7.473-16.696-16.696s7.479-16.696,16.696-16.696h44.522c27.619,0,50.087,22.468,50.087,50.087v33.391
	C512,448.875,504.521,456.348,495.304,456.348z"/>
<path style="fill:#FFE477;" d="M0,256v83.478c0,27.619,22.468,50.087,50.087,50.087h367.304c9.217,0,16.696-7.473,16.696-16.696V256
	H0z"/>
<rect x="217.043" y="256" style="fill:#FFB655;" width="217.043" height="133.565"/>
<path style="fill:#DFE2EF;" d="M434.087,289.391V139.13c0-46.032-37.446-83.478-83.478-83.478H83.478
	C37.446,55.652,0,93.098,0,139.13v150.261H434.087z"/>
<path style="fill:#D5D7E5;" d="M350.609,55.652H217.043v233.739h217.043V139.13C434.087,93.098,396.641,55.652,350.609,55.652z"/>
<path style="fill:#CC7400;" d="M395.13,389.565H261.565V172.522c0-27.662,22.424-50.087,50.087-50.087h33.391
	c27.662,0,50.087,22.424,50.087,50.087V389.565z"/>
<path style="fill:#96C8EF;" d="M150.261,222.609H83.478c-27.619,0-50.087-22.468-50.087-50.087s22.468-50.087,50.087-50.087h66.783
	c27.619,0,50.087,22.468,50.087,50.087S177.88,222.609,150.261,222.609z"/>
<path style="fill:#696B6F;" d="M133.565,456.348c-36.826,0-66.783-29.956-66.783-66.783s29.956-66.783,66.783-66.783
	s66.783,29.956,66.783,66.783S170.391,456.348,133.565,456.348z"/>
<path style="fill:#616267;" d="M200.348,389.565c0-36.826-29.956-66.783-66.783-66.783v133.565
	C170.391,456.348,200.348,426.391,200.348,389.565z"/>
<path style="fill:#DFE2EF;" d="M133.565,356.174c-18.413,0-33.391,14.978-33.391,33.391c0,18.413,14.978,33.391,33.391,33.391
	s33.391-14.978,33.391-33.391C166.957,371.152,151.978,356.174,133.565,356.174z"/>
<path style="fill:#D5D7E5;" d="M166.957,389.565c0-18.413-14.978-33.391-33.391-33.391v66.783
	C151.978,422.957,166.957,407.978,166.957,389.565z"/>
</svg>